<svg data-v-0dd9719b="" version="1.0" xmlns="http://www.w3.org/2000/svg" xmlns:xlink="http://www.w3.org/1999/xlink" width="100%" height="100%" viewBox="0 0 340.000000 250.000000" preserveAspectRatio="xMidYMid meet" color-interpolation-filters="sRGB" style="margin: auto;">   <g data-v-0dd9719b="" fill="#dbdb24" class="icon-text-wrapper icon-svg-group iconsvg" transform="translate(82.0999984741211,58.38731384277344)"><g class="iconsvg-imagesvg" transform="translate(57.900001525878906,0)"><g><rect fill="#dbdb24" fill-opacity="0" stroke-width="2" x="0" y="0" width="60" height="58.99937067337948" class="image-rect"></rect> <svg filter="url(#colors2084942390)" x="0" y="0" width="60" height="58.99937067337948" filtersec="colorsf8626731961" class="image-svg-svg primary" style="overflow: visible;"><svg fill="#000000" xmlns="http://www.w3.org/2000/svg" xmlns:xlink="http://www.w3.org/1999/xlink" version="1.0" x="0px" y="0px" viewBox="8 8.667 84 82.666" enable-background="new 0 0 100 100" xml:space="preserve"><polygon fill="none" stroke="#000000" stroke-width="2" stroke-linecap="round" stroke-linejoin="round" stroke-miterlimit="10" points="  10,82.666 23.333,89.333 23.333,72.001 10,65.334 "></polygon><polygon stroke="#000000" stroke-width="2" stroke-linecap="round" stroke-linejoin="round" stroke-miterlimit="10" points="  36.667,65.334 23.333,72.001 10,65.334 23.333,58.668 "></polygon><polygon fill="none" stroke="#000000" stroke-width="2" stroke-linecap="round" stroke-linejoin="round" stroke-miterlimit="10" points="  23.334,58.668 36.667,65.334 36.667,47.999 23.334,41.333 "></polygon><polygon stroke="#000000" stroke-width="2" stroke-linecap="round" stroke-linejoin="round" stroke-miterlimit="10" points="  50.001,41.333 36.667,47.999 23.334,41.333 36.667,34.667 "></polygon><polygon fill="none" stroke="#000000" stroke-width="2" stroke-linecap="round" stroke-linejoin="round" stroke-miterlimit="10" points="  36.668,34.667 50.001,41.333 50.001,23.999 36.668,17.335 "></polygon><polygon stroke="#000000" stroke-width="2" stroke-linecap="round" stroke-linejoin="round" stroke-miterlimit="10" points="  63.335,17.335 50.001,23.999 36.668,17.335 50.001,10.667 "></polygon><polygon fill="none" stroke="#000000" stroke-width="2" stroke-linecap="round" stroke-linejoin="round" stroke-miterlimit="10" points="  50.001,58.668 63.333,65.334 63.333,47.999 50.001,41.333 "></polygon><polygon stroke="#000000" stroke-width="2" stroke-linecap="round" stroke-linejoin="round" stroke-miterlimit="10" points="  76.668,41.333 63.333,47.999 50.001,41.333 63.333,34.667 "></polygon><polygon fill="none" stroke="#000000" stroke-width="2" stroke-linecap="round" stroke-linejoin="round" stroke-miterlimit="10" points="  36.667,82.666 49.999,89.333 49.999,72.001 36.667,65.334 "></polygon><polygon stroke="#000000" stroke-width="2" stroke-linecap="round" stroke-linejoin="round" stroke-miterlimit="10" points="  63.333,65.334 49.999,72.001 36.667,65.334 49.999,58.668 "></polygon><polygon fill="none" stroke="#000000" stroke-width="2" stroke-linecap="round" stroke-linejoin="round" stroke-miterlimit="10" points="  63.333,82.666 76.666,89.333 76.666,72.001 63.333,65.334 "></polygon><polygon stroke="#000000" stroke-width="2" stroke-linecap="round" stroke-linejoin="round" stroke-miterlimit="10" points="  90,65.334 76.666,72.001 63.333,65.334 76.666,58.668 "></polygon><polygon fill="none" stroke="#000000" stroke-width="2" stroke-linecap="round" stroke-linejoin="round" stroke-miterlimit="10" points="  36.667,82.666 23.333,89.333 23.333,72.001 36.667,65.334 "></polygon><polygon fill="none" stroke="#000000" stroke-width="2" stroke-linecap="round" stroke-linejoin="round" stroke-miterlimit="10" points="  50.001,58.668 36.667,65.334 36.667,47.999 50.001,41.333 "></polygon><polygon fill="none" stroke="#000000" stroke-width="2" stroke-linecap="round" stroke-linejoin="round" stroke-miterlimit="10" points="  63.335,34.667 50.001,41.333 50.001,23.999 63.335,17.335 "></polygon><polygon fill="none" stroke="#000000" stroke-width="2" stroke-linecap="round" stroke-linejoin="round" stroke-miterlimit="10" points="  76.668,58.668 63.333,65.334 63.333,47.999 76.668,41.333 "></polygon><polygon fill="none" stroke="#000000" stroke-width="2" stroke-linecap="round" stroke-linejoin="round" stroke-miterlimit="10" points="  63.333,82.666 49.999,89.333 49.999,72.001 63.333,65.334 "></polygon><polygon fill="none" stroke="#000000" stroke-width="2" stroke-linecap="round" stroke-linejoin="round" stroke-miterlimit="10" points="  90,82.666 76.666,89.333 76.666,72.001 90,65.334 "></polygon></svg></svg> <defs><filter id="colors2084942390"><feColorMatrix type="matrix" values="0 0 0 0 0.85546875  0 0 0 0 0.85546875  0 0 0 0 0.140625  0 0 0 1 0" class="icon-fecolormatrix"></feColorMatrix></filter> <filter id="colorsf8626731961"><feColorMatrix type="matrix" values="0 0 0 0 0.99609375  0 0 0 0 0.99609375  0 0 0 0 0.99609375  0 0 0 1 0" class="icon-fecolormatrix"></feColorMatrix></filter> <filter id="colorsb8373396694"><feColorMatrix type="matrix" values="0 0 0 0 0  0 0 0 0 0  0 0 0 0 0  0 0 0 1 0" class="icon-fecolormatrix"></feColorMatrix></filter></defs></g></g> <g transform="translate(0,65.99937057495117)"><g data-gra="path-name" fill-rule="" class="tp-name iconsvg-namesvg" transform="translate(0,0)"><g transform="scale(1)"><g><path d="M15.7 0.35Q12 0.35 9.04-0.91 6.08-2.18 4.35-4.56 2.63-6.94 2.58-10.18L2.58-10.18 10.18-10.18Q10.33-8 11.72-6.73 13.11-5.47 15.54-5.47L15.54-5.47Q18.03-5.47 19.44-6.66 20.86-7.85 20.86-9.77L20.86-9.77Q20.86-11.34 19.9-12.35 18.94-13.37 17.49-13.95 16.05-14.53 13.52-15.24L13.52-15.24Q10.08-16.25 7.92-17.24 5.77-18.23 4.23-20.23 2.68-22.23 2.68-25.57L2.68-25.57Q2.68-28.71 4.25-31.04 5.82-33.37 8.66-34.61 11.49-35.85 15.14-35.85L15.14-35.85Q20.61-35.85 24.03-33.19 27.44-30.53 27.8-25.77L27.8-25.77 20-25.77Q19.9-27.59 18.46-28.78 17.01-29.97 14.63-29.97L14.63-29.97Q12.56-29.97 11.32-28.91 10.08-27.85 10.08-25.82L10.08-25.82Q10.08-24.41 11.01-23.47 11.95-22.53 13.34-21.95 14.73-21.37 17.27-20.61L17.27-20.61Q20.71-19.59 22.89-18.58 25.06-17.57 26.63-15.54 28.2-13.52 28.2-10.23L28.2-10.23Q28.2-7.39 26.73-4.96 25.27-2.53 22.43-1.09 19.59 0.35 15.7 0.35L15.7 0.35ZM50.13-28.46Q53.32-28.46 55.8-27.06 58.28-25.67 59.67-22.96 61.06-20.25 61.06-16.46L61.06-16.46 61.06 0 53.97 0 53.97-15.49Q53.97-18.84 52.3-20.63 50.63-22.43 47.75-22.43L47.75-22.43Q44.81-22.43 43.11-20.63 41.42-18.84 41.42-15.49L41.42-15.49 41.42 0 34.33 0 34.33-37.47 41.42-37.47 41.42-24.56Q42.78-26.38 45.06-27.42 47.34-28.46 50.13-28.46L50.13-28.46ZM71.39-31.39Q69.52-31.39 68.28-32.58 67.04-33.77 67.04-35.54L67.04-35.54Q67.04-37.32 68.28-38.51 69.52-39.7 71.39-39.7L71.39-39.7Q73.27-39.7 74.51-38.51 75.75-37.32 75.75-35.54L75.75-35.54Q75.75-33.77 74.51-32.58 73.27-31.39 71.39-31.39L71.39-31.39ZM67.8-28.05L74.89-28.05 74.89 0 67.8 0 67.8-28.05ZM88.96-24Q90.33-25.92 92.73-27.22 95.14-28.51 98.23-28.51L98.23-28.51Q101.82-28.51 104.73-26.73 107.65-24.96 109.34-21.7 111.04-18.43 111.04-14.13L111.04-14.13Q111.04-9.82 109.34-6.51 107.65-3.19 104.73-1.37 101.82 0.46 98.23 0.46L98.23 0.46Q95.14 0.46 92.78-0.81 90.43-2.08 88.96-4L88.96-4 88.96 13.37 81.87 13.37 81.87-28.05 88.96-28.05 88.96-24ZM103.8-14.13Q103.8-16.66 102.76-18.51 101.72-20.35 100.03-21.32 98.33-22.28 96.35-22.28L96.35-22.28Q94.43-22.28 92.73-21.29 91.04-20.3 90-18.43 88.96-16.56 88.96-14.03L88.96-14.03Q88.96-11.49 90-9.62 91.04-7.75 92.73-6.76 94.43-5.77 96.35-5.77L96.35-5.77Q98.33-5.77 100.03-6.78 101.72-7.8 102.76-9.67 103.8-11.54 103.8-14.13L103.8-14.13ZM145.11 0L136.15 0 123.29-15.75 123.29 0 116.2 0 116.2-35.34 123.29-35.34 123.29-19.49 136.15-35.34 144.71-35.34 130.13-17.82 145.11 0ZM153.37-31.39Q151.49-31.39 150.25-32.58 149.01-33.77 149.01-35.54L149.01-35.54Q149.01-37.32 150.25-38.51 151.49-39.7 153.37-39.7L153.37-39.7Q155.24-39.7 156.48-38.51 157.72-37.32 157.72-35.54L157.72-35.54Q157.72-33.77 156.48-32.58 155.24-31.39 153.37-31.39L153.37-31.39ZM149.77-28.05L156.86-28.05 156.86 0 149.77 0 149.77-28.05ZM178.38-22.23L172.1-22.23 172.1-8.66Q172.1-7.24 172.78-6.61 173.47-5.97 175.09-5.97L175.09-5.97 178.38-5.97 178.38 0 173.92 0Q164.96 0 164.96-8.71L164.96-8.71 164.96-22.23 161.62-22.23 161.62-28.05 164.96-28.05 164.96-34.99 172.1-34.99 172.1-28.05 178.38-28.05 178.38-22.23Z" transform="translate(-2.5799999237060547, 39.70000076293945)"></path></g></g></g> </g></g><defs v-gra="od"></defs></svg>